<svg width="512" height="512" viewBox="0 0 512 512" fill="none" xmlns="http://www.w3.org/2000/svg">
  <rect width="512" height="512" fill="#F98808"/>
  <path
    d="M244 84C169.442 84 109 144.442 109 219C109 293.558 169.442 354 244 354H267V300H244C199.817 300 164 264.183 164 220C164 175.817 199.817 140 244 140C288.183 140 324 175.817 324 220V223C324 227.418 327.582 231 332 231H365C369.418 231 373 227.418 373 223V219C373 144.442 312.558 84 238 84H244Z"
    fill="#F2F2F2"
  />
  <circle cx="244" cy="220" r="39" fill="#F98808"/>
  <ellipse cx="311" cy="359" rx="69" ry="82" fill="#F2F2F2"/>
</svg>
