<svg width="512" height="512" viewBox="0 0 512 512" fill="none" xmlns="http://www.w3.org/2000/svg">
  <circle cx="256" cy="256" r="220" fill="#F98808"/>
  <path
    d="M250 108C178.754 108 121 165.754 121 237C121 308.246 178.754 366 250 366H272V314H250C207.49 314 173 279.51 173 237C173 194.49 207.49 160 250 160C292.51 160 327 194.49 327 237V240C327 244.418 330.582 248 335 248H366C370.418 248 374 244.418 374 240V237C374 165.754 316.246 108 245 108H250Z"
    fill="#F2F2F2"
  />
  <circle cx="250" cy="237" r="38" fill="#F98808"/>
  <ellipse cx="319" cy="361" rx="63" ry="75" fill="#F2F2F2"/>
</svg>
